<svg width="36" height="36" viewBox="0 0 36 36" fill="none" xmlns="http://www.w3.org/2000/svg">
<path fill-rule="evenodd" clip-rule="evenodd" d="M17.4029 34.2001V1.80005H7.23563C4.24727 1.80005 1.80005 4.24724 1.80005 7.23557V28.7642C1.80005 31.7525 4.24727 34.1997 7.23563 34.1997L17.4029 34.2001ZM18.5972 17.4027H34.2001V7.23557C34.2001 4.24724 31.7528 1.80005 28.7645 1.80005H18.5972V17.4027ZM34.2001 18.5974H18.5972V34.2001H28.7645C31.7528 34.2001 34.2001 31.7529 34.2001 28.7645V18.5974Z" fill="#43424F"/>
<rect x="4.68005" y="10.0801" width="2.52" height="15.84" fill="white"/>
<rect x="7.92004" y="10.0801" width="6.48" height="2.16" fill="white"/>
<rect x="7.92004" y="23.76" width="6.48" height="2.16" fill="white"/>
<rect x="7.92004" y="17.28" width="6.48" height="1.8" fill="white"/>
<rect x="25.5599" y="7.19995" width="1.62" height="6.48" fill="#5CE1E6"/>
<circle cx="26.3699" cy="5.85004" r="0.81" fill="#5CE1E6"/>
<path d="M25.56 30.0601V27.9001V24.6601H24.48V23.4001H25.56V21.6001L27.18 21.6001V23.4001H28.08V24.6601H27.18V28.8001C27.18 29.0247 27.272 29.3503 27.72 29.3401C28.1286 29.3309 28.44 29.1298 28.44 29.3401V29.5201V30.0601C28.26 30.6001 25.56 30.4201 25.56 30.0601Z" fill="white"/>
</svg>
